<svg height="512" viewBox="0 0 74 74" width="512" xmlns="http://www.w3.org/2000/svg"><g id="line_icons" data-name="line icons"><path d="m11.74 21.99a6.286 6.286 0 0 1 -6.279-6.279v-7.432a6.28 6.28 0 0 1 12.559 0v7.432a6.287 6.287 0 0 1 -6.28 6.279zm0-17.99a4.284 4.284 0 0 0 -4.279 4.279v7.432a4.28 4.28 0 0 0 8.559 0v-7.432a4.284 4.284 0 0 0 -4.28-4.279z"/><path d="m22.779 3h2v17.99h-2z"/><path d="m57.022 3h2v17.99h-2z"/><path d="m57.022 28.491h2v17.99h-2z"/><path d="m66.539 3h2v17.99h-2z"/><path d="m36.144 21.99a6.287 6.287 0 0 1 -6.28-6.279v-7.432a6.279 6.279 0 1 1 12.558 0v7.432a6.286 6.286 0 0 1 -6.278 6.279zm0-17.99a4.284 4.284 0 0 0 -4.28 4.279v7.432a4.279 4.279 0 1 0 8.558 0v-7.432a4.283 4.283 0 0 0 -4.278-4.279z"/><path d="m47.507 3h2v17.99h-2z"/><path d="m45.867 47.481a6.286 6.286 0 0 1 -6.278-6.281v-7.43a6.279 6.279 0 1 1 12.557 0v7.43a6.286 6.286 0 0 1 -6.279 6.281zm0-17.99a4.284 4.284 0 0 0 -4.278 4.279v7.43a4.279 4.279 0 1 0 8.557 0v-7.43a4.284 4.284 0 0 0 -4.279-4.279z"/><path d="m18.427 28.491h2v17.99h-2z"/><path d="m5.461 28.491h2v17.99h-2z"/><path d="m5.461 53.01h2v17.99h-2z"/><path d="m66.539 28.491h2v17.99h-2z"/><path d="m31.393 28.491h2v17.99h-2z"/><path d="m18.427 53.01h2v17.99h-2z"/><path d="m36.144 72a6.287 6.287 0 0 1 -6.28-6.279v-7.432a6.279 6.279 0 1 1 12.558 0v7.432a6.286 6.286 0 0 1 -6.278 6.279zm0-17.99a4.285 4.285 0 0 0 -4.28 4.279v7.432a4.279 4.279 0 1 0 8.558 0v-7.432a4.284 4.284 0 0 0 -4.278-4.279z"/><path d="m62.26 72a6.287 6.287 0 0 1 -6.28-6.279v-7.432a6.28 6.28 0 0 1 12.559 0v7.432a6.286 6.286 0 0 1 -6.279 6.279zm0-17.99a4.285 4.285 0 0 0 -4.28 4.279v7.432a4.28 4.28 0 0 0 8.559 0v-7.432a4.284 4.284 0 0 0 -4.279-4.279z"/><path d="m47.507 53.01h2v17.99h-2z"/></g></svg>